<svg xmlns="http://www.w3.org/2000/svg" width="1200" height="680" viewBox="0 0 1200 680" role="img" aria-labelledby="title desc">
  <title id="title">正弦位置编码原理</title>
  <desc id="desc">不同频率的正弦/余弦让模型既能分辨绝对位置，也容易表达相对位移。</desc>
  <defs>
    <linearGradient id="bg" x1="0" y1="0" x2="1" y2="1">
      <stop offset="0" stop-color="#07111f"/>
      <stop offset="0.55" stop-color="#0b1730"/>
      <stop offset="1" stop-color="#15102b"/>
    </linearGradient>
    <filter id="shadow" x="-20%" y="-20%" width="140%" height="140%">
      <feDropShadow dx="0" dy="10" stdDeviation="16" flood-color="#000" flood-opacity=".3"/>
    </filter>
    <marker id="arrow" viewBox="0 0 10 10" refX="9" refY="5" markerWidth="7" markerHeight="7" orient="auto-start-reverse">
      <path d="M 0 0 L 10 5 L 0 10 z" fill="#64748b"/>
    </marker>
  </defs>
  <rect width="1200" height="680" rx="34" fill="url(#bg)"/>
  <circle cx="1120" cy="70" r="150" fill="#7c3aed" opacity=".09"/>
  <circle cx="70" cy="650" r="190" fill="#0284c7" opacity=".08"/>
  <g filter="url(#shadow)">
    <rect x="55" y="45" width="1090" height="590" rx="30" fill="#081426" fill-opacity=".6" stroke="#26334d"/>
  </g>
  <text x="90" y="100" font-family="Inter, PingFang SC, Microsoft YaHei, sans-serif" font-size="20" font-weight="700" fill="#38bdf8">第 07 节 · 概念图</text>
  <text x="90" y="145" font-family="Inter, PingFang SC, Microsoft YaHei, sans-serif" font-size="34" font-weight="800" fill="#f8fafc">正弦位置编码原理</text>
  <g font-family="Inter, PingFang SC, Microsoft YaHei, sans-serif">
    
    <line x1="170" y1="330" x2="1030" y2="330" stroke="#475569" stroke-width="2"/>
    <line x1="210" y1="190" x2="210" y2="475" stroke="#475569" stroke-width="2"/>
    <polyline points="210,330 218,318.33718899925395 226,306.8508225318498 234,295.71467573407375 242,285.0972253329202 250,275.1591007925203 258,266.050654180374 266,257.9096855184356 274,250.8593580317983 282,245.0063348348013 290,240.43916524429162 298,237.22694513321443 306,235.41827159179564 314,235.04050771105702 322,236.09936861161964 330,238.57883498068992 338,242.44139542531127 346,247.62861397536358 354,254.06201415066138 362,261.6442662172616 370,270.2606596711968 378,279.78083867269794 386,290.0607741758392 394,300.9449429176164 402,312.2686803009326 410,323.86067157515356 418,335.5455436256201 426,347.1465181614063 434,358.4880861617325 442,369.39866311982297 450,379.7131849135087 458,389.2756050301252 466,397.94125536564604 474,405.5790348819547 482,412.07339301045886 490,417.3260777954963 498,421.25762233019293 506,423.808546996754 514,424.9402593227168 522,424.63563783940486 530,422.8992911094935 538,419.75748800490896 546,415.25776028987224 554,409.4681835215363 562,402.47634714733954 570,394.38802938028493 578,385.3255968997122 586,375.42615358819944 594,364.8394663120135 602,353.7256991255975 610,342.252990178901 618,330.59490798607885 626,318.9278255392031 634,307.42825199354263 642,296.27016229285346 650,285.6223651342929 658,275.6459490925313 666,266.4918455401855 674,258.2985452347026 682,251.19000311703473 690,245.27376302002037 698,240.63933065741844 706,237.35681950834396 714,235.47589008327344 722,235.0249986192697 730,236.01096657077875 738,238.41887740909374 746,242.21230229178832 754,247.3338511880071 762,253.70604112173976 770,261.23246839758644 778,269.7992670746233 786,279.2768316233851 794,289.5217777042029 802,300.3791114026401 810,311.6845741040593 818,323.26712753214485 826,334.9515413556843 834,346.56104421618306 842,357.91999806939776 850,368.85655538116595 858,379.2052589773019 866,388.8095452149074 874,397.52411260507296 882,405.2171200525143 890,411.7721814553753 898,417.0901264892649 906,421.09050093694674 914,423.7127838654683 922,424.9173032362803 930,424.6858360962482 938,423.02188426937516 946,419.9506213783476 954,415.5185119974044 962,409.79260869829614 970,402.8595376241976 978,394.8241879386403 986,385.80812497655245" fill="none" stroke="#38bdf8" stroke-width="5"/>
    <polyline points="210,235 218,235.71861880752448 226,237.86360337766575 234,241.4025026313932 242,246.28177720951396 250,252.42760945984037 258,259.7470202109413 266,268.12927543701187 274,277.44756153268514 282,287.56090385286126 290,298.3162994923147 298,309.5510320386481 306,321.09513327911816 314,332.77395461862244 322,344.4108093063338 330,355.8296454972204 338,366.8577097081913 346,377.3281603739289 354,387.0825919623982 362,395.97343146315336 370,403.8661709924064 378,410.64140273818657 386,416.1966254592759 394,420.4477952077298 402,423.3305968143859 410,424.8014169012883 418,424.83800370050153 426,423.4398036970357 434,420.6279700028733 442,416.44504233540925 450,410.95430344185104 458,404.2388217061168 466,396.4001944224569 474,387.557010748581 482,377.8430575919931 490,367.40529557235084 498,356.4016356811442 506,344.9985502752034 514,333.36855454687594 522,321.68759657325256 530,310.13239542990686 538,298.8777676403408 546,288.0939824087914 554,277.9441856485999 562,268.58193177754345 570,260.14886062114977 578,252.77255456969618 586,246.56460840757495 594,241.6189410162218 602,238.01037449254605 610,235.7935021791185 618,235.00186273148248 626,235.6474327179717 634,237.72044542839956 642,241.18953863283022 650,246.0022290550161 658,252.0857063822799 666,259.34793479941055 674,267.6790453816695 682,276.95299828164644 690,287.02948956304647 698,297.7560738332659 706,308.97047056184 714,320.50301919289086 722,332.17924590863004 730,343.8225032118183 738,355.2566423934259 746,366.30867845421596 754,376.8114071631418 762,386.60593465955964 770,395.54408132936993 778,403.4906235872813 786,410.32533964968695 794,415.94482834802824 802,420.2640734661515 810,423.21772993508426 818,424.7611124266257 826,424.8708713894995 834,423.5453463004421 842,420.80459078595544 850,416.6900692346614 858,411.26402949015414 866,404.60856111476596 874,396.82435347160066 882,388.0291724135857 890,378.3560786254343 898,367.9514145728962 906,356.9725905143741 914,345.58570306993 922,333.96302237591675 930,322.2803858416093 938,310.7145379372187 946,299.4404562591462 954,288.62870432594843 962,278.44285115407763 970,269.03699665216504 978,260.5534402717036 986,253.12052818468703" fill="none" stroke="#c084fc" stroke-width="5"/>
    <text x="1020" y="250" text-anchor="middle" font-size="22" font-weight="600" fill="#38bdf8">sin</text>
    <text x="1020" y="405" text-anchor="middle" font-size="22" font-weight="600" fill="#c084fc">cos</text>
    <text x="600" y="510" text-anchor="middle" font-size="20" font-weight="600" fill="#94a3b8">位置 pos →</text>
  
  </g>
  <rect x="90" y="565" width="1020" height="48" rx="14" fill="#0f2741" stroke="#1e3a5f"/>
  <text x="600" y="596" text-anchor="middle" font-family="Inter, PingFang SC, Microsoft YaHei, sans-serif" font-size="19" font-weight="600" fill="#bae6fd">不同频率的正弦/余弦让模型既能分辨绝对位置，也容易表达相对位移。</text>
</svg>
