<svg xmlns="http://www.w3.org/2000/svg" width="1200" height="680" viewBox="0 0 1200 680" role="img" aria-labelledby="title desc">
  <title id="title">可见区域：下三角</title>
  <desc id="desc">第 i 行只允许查看第 0…i 列，形成自回归的信息边界。</desc>
  <defs>
    <linearGradient id="bg" x1="0" y1="0" x2="1" y2="1">
      <stop offset="0" stop-color="#07111f"/>
      <stop offset="0.55" stop-color="#0b1730"/>
      <stop offset="1" stop-color="#15102b"/>
    </linearGradient>
    <filter id="shadow" x="-20%" y="-20%" width="140%" height="140%">
      <feDropShadow dx="0" dy="10" stdDeviation="16" flood-color="#000" flood-opacity=".3"/>
    </filter>
    <marker id="arrow" viewBox="0 0 10 10" refX="9" refY="5" markerWidth="7" markerHeight="7" orient="auto-start-reverse">
      <path d="M 0 0 L 10 5 L 0 10 z" fill="#64748b"/>
    </marker>
  </defs>
  <rect width="1200" height="680" rx="34" fill="url(#bg)"/>
  <circle cx="1120" cy="70" r="150" fill="#7c3aed" opacity=".09"/>
  <circle cx="70" cy="650" r="190" fill="#0284c7" opacity=".08"/>
  <g filter="url(#shadow)">
    <rect x="55" y="45" width="1090" height="590" rx="30" fill="#081426" fill-opacity=".6" stroke="#26334d"/>
  </g>
  <text x="90" y="100" font-family="Inter, PingFang SC, Microsoft YaHei, sans-serif" font-size="20" font-weight="700" fill="#38bdf8">第 12 节 · 概念图</text>
  <text x="90" y="145" font-family="Inter, PingFang SC, Microsoft YaHei, sans-serif" font-size="34" font-weight="800" fill="#f8fafc">可见区域：下三角</text>
  <g font-family="Inter, PingFang SC, Microsoft YaHei, sans-serif">
    <g transform="translate(375,160)"><rect x="0" y="0" width="54" height="54" rx="7" fill="#38bdf8" stroke="#7dd3fc"/><text x="27" y="36" text-anchor="middle" font-size="19" font-weight="600" fill="#082f49">1</text><rect x="58" y="0" width="54" height="54" rx="7" fill="#172033" stroke="#334155"/><text x="85" y="36" text-anchor="middle" font-size="19" font-weight="600" fill="#64748b">0</text><rect x="116" y="0" width="54" height="54" rx="7" fill="#172033" stroke="#334155"/><text x="143" y="36" text-anchor="middle" font-size="19" font-weight="600" fill="#64748b">0</text><rect x="174" y="0" width="54" height="54" rx="7" fill="#172033" stroke="#334155"/><text x="201" y="36" text-anchor="middle" font-size="19" font-weight="600" fill="#64748b">0</text><rect x="232" y="0" width="54" height="54" rx="7" fill="#172033" stroke="#334155"/><text x="259" y="36" text-anchor="middle" font-size="19" font-weight="600" fill="#64748b">0</text><rect x="290" y="0" width="54" height="54" rx="7" fill="#172033" stroke="#334155"/><text x="317" y="36" text-anchor="middle" font-size="19" font-weight="600" fill="#64748b">0</text><rect x="0" y="58" width="54" height="54" rx="7" fill="#38bdf8" stroke="#7dd3fc"/><text x="27" y="94" text-anchor="middle" font-size="19" font-weight="600" fill="#082f49">1</text><rect x="58" y="58" width="54" height="54" rx="7" fill="#38bdf8" stroke="#7dd3fc"/><text x="85" y="94" text-anchor="middle" font-size="19" font-weight="600" fill="#082f49">1</text><rect x="116" y="58" width="54" height="54" rx="7" fill="#172033" stroke="#334155"/><text x="143" y="94" text-anchor="middle" font-size="19" font-weight="600" fill="#64748b">0</text><rect x="174" y="58" width="54" height="54" rx="7" fill="#172033" stroke="#334155"/><text x="201" y="94" text-anchor="middle" font-size="19" font-weight="600" fill="#64748b">0</text><rect x="232" y="58" width="54" height="54" rx="7" fill="#172033" stroke="#334155"/><text x="259" y="94" text-anchor="middle" font-size="19" font-weight="600" fill="#64748b">0</text><rect x="290" y="58" width="54" height="54" rx="7" fill="#172033" stroke="#334155"/><text x="317" y="94" text-anchor="middle" font-size="19" font-weight="600" fill="#64748b">0</text><rect x="0" y="116" width="54" height="54" rx="7" fill="#38bdf8" stroke="#7dd3fc"/><text x="27" y="152" text-anchor="middle" font-size="19" font-weight="600" fill="#082f49">1</text><rect x="58" y="116" width="54" height="54" rx="7" fill="#38bdf8" stroke="#7dd3fc"/><text x="85" y="152" text-anchor="middle" font-size="19" font-weight="600" fill="#082f49">1</text><rect x="116" y="116" width="54" height="54" rx="7" fill="#38bdf8" stroke="#7dd3fc"/><text x="143" y="152" text-anchor="middle" font-size="19" font-weight="600" fill="#082f49">1</text><rect x="174" y="116" width="54" height="54" rx="7" fill="#172033" stroke="#334155"/><text x="201" y="152" text-anchor="middle" font-size="19" font-weight="600" fill="#64748b">0</text><rect x="232" y="116" width="54" height="54" rx="7" fill="#172033" stroke="#334155"/><text x="259" y="152" text-anchor="middle" font-size="19" font-weight="600" fill="#64748b">0</text><rect x="290" y="116" width="54" height="54" rx="7" fill="#172033" stroke="#334155"/><text x="317" y="152" text-anchor="middle" font-size="19" font-weight="600" fill="#64748b">0</text><rect x="0" y="174" width="54" height="54" rx="7" fill="#38bdf8" stroke="#7dd3fc"/><text x="27" y="210" text-anchor="middle" font-size="19" font-weight="600" fill="#082f49">1</text><rect x="58" y="174" width="54" height="54" rx="7" fill="#38bdf8" stroke="#7dd3fc"/><text x="85" y="210" text-anchor="middle" font-size="19" font-weight="600" fill="#082f49">1</text><rect x="116" y="174" width="54" height="54" rx="7" fill="#38bdf8" stroke="#7dd3fc"/><text x="143" y="210" text-anchor="middle" font-size="19" font-weight="600" fill="#082f49">1</text><rect x="174" y="174" width="54" height="54" rx="7" fill="#38bdf8" stroke="#7dd3fc"/><text x="201" y="210" text-anchor="middle" font-size="19" font-weight="600" fill="#082f49">1</text><rect x="232" y="174" width="54" height="54" rx="7" fill="#172033" stroke="#334155"/><text x="259" y="210" text-anchor="middle" font-size="19" font-weight="600" fill="#64748b">0</text><rect x="290" y="174" width="54" height="54" rx="7" fill="#172033" stroke="#334155"/><text x="317" y="210" text-anchor="middle" font-size="19" font-weight="600" fill="#64748b">0</text><rect x="0" y="232" width="54" height="54" rx="7" fill="#38bdf8" stroke="#7dd3fc"/><text x="27" y="268" text-anchor="middle" font-size="19" font-weight="600" fill="#082f49">1</text><rect x="58" y="232" width="54" height="54" rx="7" fill="#38bdf8" stroke="#7dd3fc"/><text x="85" y="268" text-anchor="middle" font-size="19" font-weight="600" fill="#082f49">1</text><rect x="116" y="232" width="54" height="54" rx="7" fill="#38bdf8" stroke="#7dd3fc"/><text x="143" y="268" text-anchor="middle" font-size="19" font-weight="600" fill="#082f49">1</text><rect x="174" y="232" width="54" height="54" rx="7" fill="#38bdf8" stroke="#7dd3fc"/><text x="201" y="268" text-anchor="middle" font-size="19" font-weight="600" fill="#082f49">1</text><rect x="232" y="232" width="54" height="54" rx="7" fill="#38bdf8" stroke="#7dd3fc"/><text x="259" y="268" text-anchor="middle" font-size="19" font-weight="600" fill="#082f49">1</text><rect x="290" y="232" width="54" height="54" rx="7" fill="#172033" stroke="#334155"/><text x="317" y="268" text-anchor="middle" font-size="19" font-weight="600" fill="#64748b">0</text><rect x="0" y="290" width="54" height="54" rx="7" fill="#38bdf8" stroke="#7dd3fc"/><text x="27" y="326" text-anchor="middle" font-size="19" font-weight="600" fill="#082f49">1</text><rect x="58" y="290" width="54" height="54" rx="7" fill="#38bdf8" stroke="#7dd3fc"/><text x="85" y="326" text-anchor="middle" font-size="19" font-weight="600" fill="#082f49">1</text><rect x="116" y="290" width="54" height="54" rx="7" fill="#38bdf8" stroke="#7dd3fc"/><text x="143" y="326" text-anchor="middle" font-size="19" font-weight="600" fill="#082f49">1</text><rect x="174" y="290" width="54" height="54" rx="7" fill="#38bdf8" stroke="#7dd3fc"/><text x="201" y="326" text-anchor="middle" font-size="19" font-weight="600" fill="#082f49">1</text><rect x="232" y="290" width="54" height="54" rx="7" fill="#38bdf8" stroke="#7dd3fc"/><text x="259" y="326" text-anchor="middle" font-size="19" font-weight="600" fill="#082f49">1</text><rect x="290" y="290" width="54" height="54" rx="7" fill="#38bdf8" stroke="#7dd3fc"/><text x="317" y="326" text-anchor="middle" font-size="19" font-weight="600" fill="#082f49">1</text></g><text x="550" y="145" text-anchor="middle" font-size="20" font-weight="600" fill="#94a3b8">Key 位置 →</text><text x="340" y="338" transform="rotate(-90 340 338)" text-anchor="middle" font-size="20" fill="#94a3b8">Query 位置 →</text>
    <rect x="790" y="215" width="290" height="105" rx="22" fill="#111c33" stroke="#34d399" stroke-width="2"/>
    <rect x="790" y="215" width="8" height="105" rx="4" fill="#34d399"/>
    <text x="939" y="275.5" text-anchor="middle" font-size="21" font-weight="600" fill="#dbeafe">亮色：可以查看</text>
  
    <rect x="790" y="350" width="290" height="105" rx="22" fill="#111c33" stroke="#64748b" stroke-width="2"/>
    <rect x="790" y="350" width="8" height="105" rx="4" fill="#64748b"/>
    <text x="939" y="410.5" text-anchor="middle" font-size="21" font-weight="600" fill="#dbeafe">暗色：未来被屏蔽</text>
  
  </g>
  <rect x="90" y="565" width="1020" height="48" rx="14" fill="#0f2741" stroke="#1e3a5f"/>
  <text x="600" y="596" text-anchor="middle" font-family="Inter, PingFang SC, Microsoft YaHei, sans-serif" font-size="19" font-weight="600" fill="#bae6fd">第 i 行只允许查看第 0…i 列，形成自回归的信息边界。</text>
</svg>
