<svg xmlns="http://www.w3.org/2000/svg" width="1200" height="680" viewBox="0 0 1200 680" role="img" aria-labelledby="title desc">
  <title id="title">Position-wise FFN</title>
  <desc id="desc">同一组参数独立作用于每个 token；它混合特征维，不混合序列位置。</desc>
  <defs>
    <linearGradient id="bg" x1="0" y1="0" x2="1" y2="1">
      <stop offset="0" stop-color="#07111f"/>
      <stop offset="0.55" stop-color="#0b1730"/>
      <stop offset="1" stop-color="#15102b"/>
    </linearGradient>
    <filter id="shadow" x="-20%" y="-20%" width="140%" height="140%">
      <feDropShadow dx="0" dy="10" stdDeviation="16" flood-color="#000" flood-opacity=".3"/>
    </filter>
    <marker id="arrow" viewBox="0 0 10 10" refX="9" refY="5" markerWidth="7" markerHeight="7" orient="auto-start-reverse">
      <path d="M 0 0 L 10 5 L 0 10 z" fill="#64748b"/>
    </marker>
  </defs>
  <rect width="1200" height="680" rx="34" fill="url(#bg)"/>
  <circle cx="1120" cy="70" r="150" fill="#7c3aed" opacity=".09"/>
  <circle cx="70" cy="650" r="190" fill="#0284c7" opacity=".08"/>
  <g filter="url(#shadow)">
    <rect x="55" y="45" width="1090" height="590" rx="30" fill="#081426" fill-opacity=".6" stroke="#26334d"/>
  </g>
  <text x="90" y="100" font-family="Inter, PingFang SC, Microsoft YaHei, sans-serif" font-size="20" font-weight="700" fill="#38bdf8">第 20 节 · 概念图</text>
  <text x="90" y="145" font-family="Inter, PingFang SC, Microsoft YaHei, sans-serif" font-size="34" font-weight="800" fill="#f8fafc">Position-wise FFN</text>
  <g font-family="Inter, PingFang SC, Microsoft YaHei, sans-serif">
    
    <rect x="60" y="270" width="195.2" height="150" rx="22" fill="#111c33" stroke="#38bdf8" stroke-width="2"/>
    <rect x="60" y="270" width="8" height="150" rx="4" fill="#38bdf8"/>
    <text x="161.6" y="353" text-anchor="middle" font-size="21" font-weight="600" fill="#dbeafe">每个位置向量 D</text>
  <path d="M 259.2 345 L 275.2 345" stroke="#64748b" stroke-width="4" fill="none" marker-end="url(#arrow)"/>
    <rect x="281.2" y="270" width="195.2" height="150" rx="22" fill="#111c33" stroke="#818cf8" stroke-width="2"/>
    <rect x="281.2" y="270" width="8" height="150" rx="4" fill="#818cf8"/>
    <text x="382.79999999999995" y="353" text-anchor="middle" font-size="21" font-weight="600" fill="#dbeafe">Linear D→d_ff</text>
  <path d="M 480.4 345 L 496.4 345" stroke="#64748b" stroke-width="4" fill="none" marker-end="url(#arrow)"/>
    <rect x="502.4" y="270" width="195.2" height="150" rx="22" fill="#111c33" stroke="#c084fc" stroke-width="2"/>
    <rect x="502.4" y="270" width="8" height="150" rx="4" fill="#c084fc"/>
    <text x="604" y="353" text-anchor="middle" font-size="21" font-weight="600" fill="#dbeafe">ReLU / GELU</text>
  <path d="M 701.5999999999999 345 L 717.5999999999999 345" stroke="#64748b" stroke-width="4" fill="none" marker-end="url(#arrow)"/>
    <rect x="723.5999999999999" y="270" width="195.2" height="150" rx="22" fill="#111c33" stroke="#fb7185" stroke-width="2"/>
    <rect x="723.5999999999999" y="270" width="8" height="150" rx="4" fill="#fb7185"/>
    <text x="825.1999999999999" y="353" text-anchor="middle" font-size="21" font-weight="600" fill="#dbeafe">Dropout</text>
  <path d="M 922.8 345 L 938.8 345" stroke="#64748b" stroke-width="4" fill="none" marker-end="url(#arrow)"/>
    <rect x="944.8" y="270" width="195.2" height="150" rx="22" fill="#111c33" stroke="#fbbf24" stroke-width="2"/>
    <rect x="944.8" y="270" width="8" height="150" rx="4" fill="#fbbf24"/>
    <text x="1046.3999999999999" y="353" text-anchor="middle" font-size="21" font-weight="600" fill="#dbeafe">Linear d_ff→D</text>
  
  </g>
  <rect x="90" y="565" width="1020" height="48" rx="14" fill="#0f2741" stroke="#1e3a5f"/>
  <text x="600" y="596" text-anchor="middle" font-family="Inter, PingFang SC, Microsoft YaHei, sans-serif" font-size="19" font-weight="600" fill="#bae6fd">同一组参数独立作用于每个 token；它混合特征维，不混合序列位置。</text>
</svg>
